:FULLY-SPECIFIED
:FORCE-ALL-JOINTS-BE-3DOF
:DEGREES
68
root 5.93212 16.7499 -28.0705 10.9802 3.05901 -3.95496
lfemur -34.8927 14.5871 -17.3445
ltibia 51.7048 -0 0
lfoot -20.8997 -11.0556 0.179638
ltoes 32.0399 -0 0
rfemur -16.2525 -1.59032 22.2384
rtibia 29.249 -0 0
rfoot -28.3156 -17.8238 -0.314468
rtoes -9.25131 0 0
lowerback -3.66283 2.54228 3.46268
upperback -1.45472 3.27339 -0.228366
thorax 0.757532 1.63145 -2.03524
lowerneck -9.96295 -2.54251 2.17354
upperneck -5.56103 -3.53669 2.12726
head -0.0899867 -1.78376 0.197866
lclavicle 2.16607e-14 8.27208e-15 2.93733e-31
lhumerus -40.6582 -12.4269 93.8738
lradius 44.1636 -0 0
lwrist 7.86332 0 0
lhand -11.1989 2.27693 -0.0151867
lfingers 7.12502 -0 0
lthumb 14.83 31.7415 -0.00882081
rclavicle 2.16607e-14 8.27208e-15 2.93733e-31
rhumerus -39.3542 1.67315 -91.99
rradius 42.7317 -0 0
rwrist 7.04439 0 0
rhand -24.4996 -21.9821 0.00563327
rfingers 7.12502 -0 0
rthumb 1.99484 -51.9511 0.00553492
69
root 5.94725 16.7451 -28.0432 11.0052 3.11986 -4.12963
lfemur -35.2564 14.4952 -16.9312
ltibia 51.6063 -0 0
lfoot -20.6559 -10.2847 0.205281
ltoes 31.3215 -0 0
rfemur -15.7916 -1.87434 22.4829
rtibia 28.6429 -0 0
rfoot -28.7979 -17.9413 -0.4635
rtoes -9.5812 0 0
lowerback -3.6483 2.63343 3.5172
upperback -1.49064 3.39354 -0.190701
thorax 0.718332 1.69081 -2.02549
lowerneck -9.98419 -2.60872 2.23442
upperneck -5.59344 -3.63019 2.10081
head -0.0993437 -1.83183 0.177739
lclavicle 2.09848e-14 8.87657e-15 3.85176e-31
lhumerus -40.7626 -12.1666 93.7085
lradius 44.2148 -0 0
lwrist 7.92917 0 0
lhand -11.2129 2.24478 -0.0226057
lfingers 7.12502 -0 0
lthumb 14.8171 31.7177 -0.0131822
rclavicle 2.09848e-14 8.87657e-15 3.85176e-31
rhumerus -39.2188 1.82615 -91.9681
rradius 42.8408 -0 0
rwrist 7.02681 0 0
rhand -24.3544 -21.9403 0.00672991
rfingers 7.12502 -0 0
rthumb 2.13503 -51.9075 0.00661802
70
root 5.96349 16.7405 -28.0138 11.0309 3.16998 -4.31305
lfemur -35.6056 14.3551 -16.4851
ltibia 51.4421 -0 0
lfoot -20.4385 -9.39792 0.222973
ltoes 30.5523 -0 0
rfemur -15.2912 -2.15949 22.7393
rtibia 27.9822 -0 0
rfoot -29.3234 -18.0739 -0.627685
rtoes -9.87716 0 0
lowerback -3.64013 2.73192 3.56504
upperback -1.53059 3.52345 -0.149102
thorax 0.678345 1.75506 -2.00752
lowerneck -10.0058 -2.67698 2.30319
upperneck -5.62066 -3.72747 2.06931
head -0.107303 -1.88184 0.154694
lclavicle 2.0174e-14 9.52716e-15 4.73522e-31
lhumerus -40.8784 -11.8869 93.5368
lradius 44.2577 -0 0
lwrist 7.99618 0 0
lhand -11.2321 2.21276 -0.0307608
lfingers 7.12502 -0 0
lthumb 14.7992 31.6951 -0.0179861
rclavicle 2.0174e-14 9.52716e-15 4.73522e-31
rhumerus -39.0736 1.9703 -91.9394
rradius 42.946 -0 0
rwrist 7.0205 0 0
rhand -24.2042 -21.8902 0.00766499
rfingers 7.12502 -0 0
rthumb 2.2801 -51.8556 0.00754285
71
root 5.98087 16.7359 -27.9824 11.0553 3.21205 -4.50255
lfemur -35.9379 14.1712 -16.012
ltibia 51.2188 -0 0
lfoot -20.2449 -8.41541 0.233116
ltoes 29.7428 -0 0
rfemur -14.7648 -2.44392 22.9997
rtibia 27.2898 -0 0
rfoot -29.8719 -18.2116 -0.80026
rtoes -10.1361 0 0
lowerback -3.63633 2.83585 3.60599
upperback -1.57354 3.66066 -0.103951
thorax 0.637433 1.82296 -1.9817
lowerneck -10.0277 -2.74698 2.3784
upperneck -5.64216 -3.82796 2.03341
head -0.113662 -1.93348 0.129148
lclavicle 1.92448e-14 1.02116e-14 5.5398e-31
lhumerus -41.0048 -11.5917 93.3605
lradius 44.2939 -0 0
lwrist 8.06511 0 0
lhand -11.2523 2.18232 -0.0392869
lfingers 7.12502 -0 0
lthumb 14.7804 31.6745 -0.0230158
rclavicle 1.92448e-14 1.02116e-14 5.5398e-31
rhumerus -38.9214 2.10543 -91.9008
rradius 43.0486 -0 0
rwrist 7.02352 0 0
rhand -24.0502 -21.8322 0.00842072
rfingers 7.12502 -0 0
rthumb 2.42885 -51.7956 0.00829131
72
root 5.99946 16.7315 -27.9492 11.0762 3.24876 -4.69541
lfemur -36.251 13.9476 -15.5176
ltibia 50.9432 -0 0
lfoot -20.0731 -7.35728 0.236304
ltoes 28.9035 -0 0
rfemur -14.2254 -2.72549 23.2565
rtibia 26.5883 -0 0
rfoot -30.4233 -18.3446 -0.974135
rtoes -10.3548 0 0
lowerback -3.6349 2.94329 3.63986
upperback -1.61844 3.80275 -0.0556248
thorax 0.59546 1.89329 -1.9484
lowerneck -10.0499 -2.8184 2.45858
upperneck -5.65745 -3.93111 1.99372
head -0.118217 -1.98644 0.101517
lclavicle 1.82139e-14 1.09177e-14 6.22304e-31
lhumerus -41.1408 -11.2855 93.1816
lradius 44.3251 -0 0
lwrist 8.1367 0 0
lhand -11.2689 2.15493 -0.0478133
lfingers 7.12502 -0 0
lthumb 14.7651 31.6566 -0.0280508
rclavicle 1.82139e-14 1.09177e-14 6.22304e-31
rhumerus -38.7652 2.23134 -91.8488
rradius 43.1497 -0 0
rwrist 7.03392 0 0
rhand -23.8936 -21.7665 0.00898132
rfingers 7.12502 -0 0
rthumb 2.58005 -51.7278 0.00884734
73
root 6.01928 16.7272 -27.9146 11.0917 3.28277 -4.88895
lfemur -36.5426 13.6883 -15.0079
ltibia 50.6219 -0 0
lfoot -19.9206 -6.24362 0.233258
ltoes 28.0447 -0 0
rfemur -13.6864 -3.00184 23.5022
rtibia 25.9004 -0 0
rfoot -30.9576 -18.4634 -1.14199
rtoes -10.5302 0 0
lowerback -3.63384 3.05232 3.66643
upperback -1.66428 3.94725 -0.00449022
thorax 0.552289 1.9648 -1.90799
lowerneck -10.0723 -2.89092 2.54225
upperneck -5.66601 -4.03636 1.95086
head -0.120769 -2.04042 0.0722155
lclavicle 1.70977e-14 1.16332e-14 6.74947e-31
lhumerus -41.2853 -10.9723 93.0019
lradius 44.3531 -0 0
lwrist 8.21168 0 0
lhand -11.2776 2.13203 -0.0559644
lfingers 7.12502 -0 0
lthumb 14.7573 31.6423 -0.0328677
rclavicle 1.70977e-14 1.16332e-14 6.74947e-31
rhumerus -38.6076 2.34782 -91.7805
rradius 43.2505 -0 0
rwrist 7.04974 0 0
rhand -23.7357 -21.6933 0.00933388
rfingers 7.12502 -0 0
rthumb 2.7325 -51.6525 0.00919791
74
root 6.0404 16.7231 -27.8786 11.0998 3.31672 -5.08047
lfemur -36.8104 13.3971 -14.489
ltibia 50.2615 -0 0
lfoot -19.7852 -5.09451 0.224781
ltoes 27.177 -0 0
rfemur -13.1608 -3.27032 23.7294
rtibia 25.2487 -0 0
rfoot -31.4549 -18.5587 -1.29624
rtoes -10.6592 0 0
lowerback -3.63118 3.16103 3.68553
upperback -1.71002 4.09173 0.0490932
thorax 0.507779 2.03628 -1.86084
lowerneck -10.0949 -2.96422 2.62794
upperneck -5.66735 -4.14313 1.90545
head -0.121115 -2.09509 0.0416597
lclavicle 1.59126e-14 1.23459e-14 7.09183e-31
lhumerus -41.4373 -10.6563 92.8234
lradius 44.3794 -0 0
lwrist 8.29081 0 0
lhand -11.2738 2.11508 -0.0633623
lfingers 7.12502 -0 0
lthumb 14.7616 31.6323 -0.0372422
rclavicle 1.59126e-14 1.23459e-14 7.09183e-31
rhumerus -38.4514 2.45465 -91.6924
rradius 43.3521 -0 0
rwrist 7.06905 0 0
rhand -23.5778 -21.6128 0.00946925
rfingers 7.12502 -0 0
rthumb 2.885 -51.5698 0.0093338
75
root 6.06284 16.7191 -27.8415 11.0983 3.35326 -5.26727
lfemur -37.0517 13.078 -13.9667
ltibia 49.8687 -0 0
lfoot -19.6645 -3.93002 0.211718
ltoes 26.3106 -0 0
rfemur -12.6615 -3.52806 23.931
rtibia 24.6559 -0 0
rfoot -31.8953 -18.6215 -1.42909
rtoes -10.7386 0 0
lowerback -3.62493 3.26749 3.69697
upperback -1.75465 4.23372 0.104775
thorax 0.461789 2.10649 -1.80731
lowerneck -10.1175 -3.03799 2.71418
upperneck -5.66098 -4.25087 1.8581
head -0.119057 -2.15015 0.0102635
lclavicle 1.46752e-14 1.30435e-14 7.23198e-31
lhumerus -41.5957 -10.3417 92.6482
lradius 44.4057 -0 0
lwrist 8.37483 0 0
lhand -11.2531 2.10554 -0.0696297
lfingers 7.12502 -0 0
lthumb 14.782 31.6274 -0.0409504
rclavicle 1.46752e-14 1.30435e-14 7.23198e-31
rhumerus -38.2995 2.5516 -91.5814
rradius 43.4558 -0 0
rwrist 7.08987 0 0
rhand -23.4211 -21.5252 0.0093829
rfingers 7.12502 -0 0
rthumb 3.03632 -51.4801 0.00925044
76
root 6.08668 16.7154 -27.8036 11.0852 3.39501 -5.44666
lfemur -37.2639 12.7344 -13.4474
ltibia 49.4502 -0 0
lfoot -19.5562 -2.77024 0.194917
ltoes 25.4561 -0 0
rfemur -12.2015 -3.77201 24.1001
rtibia 24.1447 -0 0
rfoot -32.2591 -18.643 -1.53266
rtoes -10.7653 0 0
lowerback -3.61311 3.36978 3.70057
upperback -1.79714 4.37077 0.162213
thorax 0.414172 2.1742 -1.74777
lowerneck -10.1401 -3.11192 2.7995
upperneck -5.64639 -4.35899 1.80943
head -0.114397 -2.20529 -0.0215586
lclavicle 1.34021e-14 1.37138e-14 7.16139e-31
lhumerus -41.7594 -10.0325 92.4781
lradius 44.4338 -0 0
lwrist 8.46447 0 0
lhand -11.2111 2.10485 -0.0743945
lfingers 7.12502 -0 0
lthumb 14.8228 31.6283 -0.0437725
rclavicle 1.34021e-14 1.37138e-14 7.16139e-31
rhumerus -38.1545 2.63843 -91.4442
rradius 43.5628 -0 0
rwrist 7.11027 0 0
rhand -23.2669 -21.4308 0.00907563
rfingers 7.12502 -0 0
rthumb 3.18527 -51.3836 0.00894862
77
root 6.11193 16.7118 -27.7649 11.0584 3.44458 -5.61597
lfemur -37.4445 12.3701 -12.9373
ltibia 49.0126 -0 0
lfoot -19.4578 -1.63524 0.175208
ltoes 24.6239 -0 0
rfemur -11.7938 -3.99899 24.2296
rtibia 23.7377 -0 0
rfoot -32.5262 -18.6142 -1.59906
rtoes -10.7363 0 0
lowerback -3.59372 3.46599 3.69617
upperback -1.8365 4.50043 0.221072
thorax 0.36478 2.23817 -1.68258
lowerneck -10.1627 -3.1857 2.88243
upperneck -5.62309 -4.46695 1.76004
head -0.106937 -2.2602 -0.053393
lclavicle 1.21097e-14 1.43446e-14 6.88129e-31
lhumerus -41.9271 -9.73287 92.3154
lradius 44.4653 -0 0
lwrist 8.5605 0 0
lhand -11.1433 2.11446 -0.0772955
lfingers 7.12502 -0 0
lthumb 14.8884 31.6359 -0.0454953
rclavicle 1.21097e-14 1.43446e-14 6.88129e-31
rhumerus -38.0193 2.71492 -91.2778
rradius 43.6742 -0 0
rwrist 7.1283 0 0
rhand -23.1164 -21.3298 0.00855433
rfingers 7.12502 -0 0
rthumb 3.33062 -51.2806 0.00843523
78
root 6.13867 16.7085 -27.7258 11.0158 3.50458 -5.77253
lfemur -37.5904 11.9884 -12.4425
ltibia 48.5626 -0 0
lfoot -19.367 -0.545069 0.153382
ltoes 23.8244 -0 0
rfemur -11.4512 -4.20571 24.3128
rtibia 23.4577 -0 0
rfoot -32.6769 -18.5264 -1.6206
rtoes -10.6483 0 0
lowerback -3.56479 3.55418 3.6836
upperback -1.87171 4.62024 0.281024
thorax 0.313457 2.29719 -1.61209
lowerneck -10.1851 -3.25901 2.9615
upperneck -5.59059 -4.57415 1.71054
head -0.0964809 -2.31456 -0.084826
lclavicle 1.08144e-14 1.49236e-14 6.40253e-31
lhumerus -42.0977 -9.44689 92.1619
lradius 44.5019 -0 0
lwrist 8.66364 0 0
lhand -11.0452 2.13584 -0.0779889
lfingers 7.12502 -0 0
lthumb 14.9829 31.651 -0.0459163
rclavicle 1.08144e-14 1.49236e-14 6.40253e-31
rhumerus -37.8968 2.78084 -91.0789
rradius 43.7912 -0 0
rwrist 7.142 0 0
rhand -22.9709 -21.2225 0.00783267
rfingers 7.12502 -0 0
rthumb 3.47117 -51.1712 0.00772385
79
root 6.16692 16.7055 -27.6864 10.9553 3.57762 -5.91367
lfemur -37.6986 11.5929 -11.9694
ltibia 48.1068 -0 0
lfoot -19.2813 0.480195 0.130184
ltoes 23.068 -0 0
rfemur -11.1866 -4.38895 24.3431
rtibia 23.3274 -0 0
rfoot -32.691 -18.3704 -1.58989
rtoes -10.4982 0 0
lowerback -3.52432 3.63246 3.66269
upperback -1.90179 4.72773 0.341745
thorax 0.260044 2.35001 -1.53668
lowerneck -10.2073 -3.33155 3.03523
upperneck -5.54841 -4.68004 1.66155
head -0.082834 -2.36806 -0.115444
lclavicle 9.53293e-15 1.54385e-14 5.74497e-31
lhumerus -42.2699 -9.17862 92.0199
lradius 44.5453 -0 0
lwrist 8.77464 0 0
lhand -10.9125 2.17044 -0.0761563
lfingers 7.12502 -0 0
lthumb 15.1106 31.6742 -0.0448484
rclavicle 9.53293e-15 1.54385e-14 5.74497e-31
rhumerus -37.7896 2.83602 -90.8443
rradius 43.9149 -0 0
rwrist 7.14942 0 0
rhand -22.8316 -21.109 0.00693165
rfingers 7.12502 -0 0
rthumb 3.60571 -51.0558 0.00683539
80
root 6.19674 16.7027 -27.647 10.8748 3.66634 -6.03678
lfemur -37.766 11.1869 -11.5245
ltibia 47.6519 -0 0
lfoot -19.1981 1.42049 0.106313
ltoes 22.3652 -0 0
rfemur -11.0128 -4.54559 24.3136
rtibia 23.3692 -0 0
rfoot -32.5483 -18.1369 -1.50009
rtoes -10.283 0 0
lowerback -3.47032 3.69891 3.63328
upperback -1.92574 4.82043 0.402915
thorax 0.204377 2.39541 -1.45669
lowerneck -10.2292 -3.40301 3.10214
upperneck -5.49607 -4.78404 1.61367
head -0.0658025 -2.4204 -0.144834
lclavicle 8.28165e-15 1.58773e-14 4.93666e-31
lhumerus -42.4424 -8.93208 91.8914
lradius 44.5971 -0 0
lwrist 8.89425 0 0
lhand -10.7406 2.21973 -0.0715137
lfingers 7.12502 -0 0
lthumb 15.2758 31.7065 -0.0421246
rclavicle 8.28165e-15 1.58773e-14 4.93666e-31
rhumerus -37.7006 2.88029 -90.5709
rradius 44.0467 -0 0
rwrist 7.14861 0 0
rhand -22.6997 -20.9896 0.00588026
rfingers 7.12502 -0 0
rthumb 3.73303 -50.9345 0.00579857
